<?xml version="1.0" encoding="utf-8"?>
<!-- Generator: Adobe Illustrator 24.1.3, SVG Export Plug-In . SVG Version: 6.00 Build 0)  -->
<svg version="1.1" id="Layer_1" xmlns="http://www.w3.org/2000/svg" xmlns:xlink="http://www.w3.org/1999/xlink" x="0px" y="0px"
	 viewBox="0 0 500 75" style="enable-background:new 0 0 500 75;" xml:space="preserve">
<style type="text/css">
	.st0{fill:#363636;}
	.st1{fill:#9A9A9A;}
	.st2{fill:#C6C6C6;}
	.st3{fill:#B0B0B0;}
	.st4{fill:#FFFFFF;}
	.st5{opacity:5.000000e-02;fill:#333333;enable-background:new    ;}
	.st6{opacity:0.2;fill:#EBEBEB;enable-background:new    ;}
</style>
<g>
	<g>
		<path class="st0" d="M1108.2,504.8c-6,0-10.8,4.9-10.8,10.8c0,6,4.9,10.8,10.8,10.8s10.8-4.9,10.8-10.8
			C1119.1,509.7,1114.2,504.8,1108.2,504.8z M1114.5,518.2c0.1,2.1-1.7,3.8-3.8,3.8h-5.1c-2.1,0-3.8-1.7-3.8-3.8v-5.1
			c0-2.1,1.7-3.8,3.8-3.8h5.1c2.1,0,3.8,1.7,3.8,3.8V518.2z"/>
		<path class="st0" d="M1110.7,510.4c0,0.1-5,0.1-5,0c-1.5,0-2.6,1.2-2.6,2.6v5.1c0,1.5,1.2,2.6,2.6,2.6h5c1.5,0,2.6-1.2,2.6-2.6
			v-5.1C1113.4,511.6,1112.2,510.4,1110.7,510.4z M1108.3,518.8c-1.7,0-3.1-1.4-3.1-3.1s1.4-3.1,3.1-3.1s3.1,1.3,3.1,3.1
			C1111.4,517.4,1110,518.8,1108.3,518.8z M1111.6,513c-0.4,0-0.7-0.3-0.7-0.7s0.3-0.7,0.7-0.7s0.7,0.3,0.7,0.7S1112,513,1111.6,513
			z"/>
		<path class="st0" d="M1108.3,513.6c-1.1,0-2,0.9-2,2s0.9,2,2,2c1.1,0,2-0.9,2-2S1109.4,513.6,1108.3,513.6z"/>
	</g>
	<path class="st0" d="M1079.8,504.8c-6,0-10.8,4.8-10.8,10.8c0,5.4,4,9.8,9.1,10.7v-7.6h-2.7h-0.1v-3.1h0.1h2.7v-2.4
		c0-2.8,1.7-4.2,4.1-4.2c0,0,0,0,0.1,0c0,0,0,0,0,0c1.2,0,2.5,0.2,2.5,0.2v2.7h-0.1h-1.3c-1.3,0-1.8,0.9-1.8,1.7v2h3l-0.5,3.1h-2.5
		v7.6c5.2-0.9,9.1-5.3,9.1-10.7C1090.6,509.6,1085.8,504.8,1079.8,504.8z"/>
	<g>
		<path class="st0" d="M1136.7,504.8c-6,0-10.8,4.9-10.8,10.8c0,6,4.9,10.8,10.8,10.8s10.8-4.9,10.8-10.8
			C1147.5,509.7,1142.7,504.8,1136.7,504.8z M1137.1,521.7c-1,0-2-0.2-2.9-0.7l-3.4,0.9l0.9-3.4c-0.5-0.9-0.8-2-0.8-3
			c0-3.4,2.8-6.3,6.3-6.3s6.3,2.8,6.3,6.3S1140.6,521.7,1137.1,521.7z"/>
		<path class="st0" d="M1137.1,510.5c-2.8,0-5,2.3-5,5c0,0.9,0.2,1.8,0.7,2.6l0.1,0.2l-0.5,1.9l1.9-0.6l0.2,0.1
			c0.8,0.5,1.7,0.7,2.6,0.7c2.8,0,5-2.3,5-5C1142.1,512.8,1139.8,510.5,1137.1,510.5z M1140,517.2c-0.2,0.5-0.6,0.8-1.1,0.9
			c-0.4,0.1-0.8-0.1-1.2-0.2c-0.4-0.1-0.7-0.3-1-0.5c-0.7-0.4-1.2-1-1.7-1.6c-0.1-0.2-0.2-0.4-0.4-0.6c-0.1-0.2-0.3-0.6-0.4-0.9
			c-0.1-0.1-0.1-0.2-0.1-0.4c0-0.4,0.2-0.9,0.6-1.2c0.2-0.2,0.6-0.2,0.8-0.1c0.2,0.2,0.4,0.6,0.5,0.8c0.1,0.2,0.2,0.4,0.2,0.7
			c-0.1,0.2-0.2,0.4-0.4,0.6c-0.1,0.1-0.1,0.2-0.1,0.4c0.5,0.8,1.2,1.3,2,1.7c0.1,0.1,0.2,0.1,0.3-0.1c0.2-0.2,0.3-0.5,0.6-0.6
			c0.3-0.1,0.7,0,0.9,0.2c0.2,0.2,0.6,0.3,0.6,0.5C1140,516.9,1140,517.1,1140,517.2z"/>
	</g>
	<g>
		<path class="st0" d="M1166.8,515.6l-2.9-1.5c-0.1-0.1-0.5,0-0.5,0.1v3c0,0.2,0.4,0.2,0.5,0.2l3-1.5
			C1167.1,515.8,1166.9,515.7,1166.8,515.6z"/>
		<path class="st0" d="M1165,504.8c-6,0-10.8,4.9-10.8,10.8c0,6,4.9,10.8,10.8,10.8c6,0,10.8-4.9,10.8-10.8
			C1175.9,509.7,1171,504.8,1165,504.8z M1170.9,517.2c0,1.4-1.2,2.6-2.6,2.6h-6.7c-1.4,0-2.6-1.2-2.6-2.6v-3.1
			c0-1.4,1.2-2.6,2.6-2.6h6.7c1.4,0,2.6,1.2,2.6,2.6V517.2z"/>
	</g>
	<g id="XMLID_42_">
		<circle id="XMLID_51_" class="st1" cx="994.4" cy="515.6" r="13.1"/>
		<circle id="XMLID_50_" class="st2" cx="994.4" cy="515.6" r="12.7"/>
		<circle id="XMLID_49_" class="st1" cx="994.4" cy="515.6" r="9.9"/>
		<circle id="XMLID_48_" class="st3" cx="994.4" cy="515.6" r="9.3"/>
		<g id="XMLID_45_">
			<path id="XMLID_47_" class="st4" d="M994,513.3h-1.7V513c0-0.4-0.1-0.7-0.2-0.9c-0.2-0.2-0.5-0.4-0.9-0.4c-0.2,0-0.4,0.1-0.6,0.1
				c-0.2,0.1-0.2,0.2-0.4,0.4c-0.1,0.2-0.1,0.3-0.2,0.5s-0.1,0.4-0.1,0.6c0,0.2,0,0.4,0.1,0.6c0,0.2,0.1,0.3,0.1,0.4
				c0.1,0.1,0.1,0.2,0.3,0.3c0.1,0.1,0.2,0.2,0.5,0.2l1.2,0.5c0.4,0.1,0.7,0.3,0.9,0.5c0.2,0.2,0.4,0.4,0.6,0.7
				c0.1,0.2,0.2,0.6,0.2,0.9c0.1,0.3,0.1,0.7,0.1,1.1c0,0.5-0.1,0.9-0.1,1.3c-0.1,0.4-0.2,0.8-0.5,1.1c-0.2,0.3-0.5,0.5-0.9,0.7
				c-0.4,0.2-0.8,0.2-1.3,0.2c-0.4,0-0.8-0.1-1.1-0.2c-0.4-0.2-0.7-0.3-0.9-0.6s-0.4-0.5-0.6-0.9c-0.2-0.4-0.2-0.7-0.2-1.1v-0.6h1.7
				v0.5c0,0.4,0.1,0.6,0.3,0.8c0.2,0.2,0.5,0.4,0.9,0.4c0.2,0,0.5-0.1,0.7-0.1c0.2-0.1,0.2-0.2,0.4-0.4c0.1-0.2,0.1-0.3,0.1-0.6
				c0.1-0.2,0-0.4,0-0.7c0-0.4-0.1-0.6-0.1-0.7c-0.1-0.2-0.1-0.4-0.1-0.5c-0.1-0.1-0.2-0.2-0.3-0.3c-0.1-0.1-0.3-0.1-0.5-0.2
				l-1.2-0.5c-0.7-0.3-1.2-0.7-1.4-1.2c-0.2-0.5-0.4-1.1-0.4-1.8c0-0.4,0.1-0.8,0.2-1.2c0.1-0.4,0.3-0.7,0.6-1
				c0.2-0.3,0.5-0.5,0.9-0.7c0.4-0.2,0.8-0.2,1.2-0.2s0.8,0.1,1.1,0.2c0.4,0.2,0.6,0.4,0.9,0.6c0.5,0.5,0.8,1.1,0.7,1.8L994,513.3z"
				/>
			<path id="XMLID_46_" class="st4" d="M995.2,521.5V510h2.4c0.5,0,0.9,0.1,1.3,0.2c0.4,0.2,0.7,0.4,0.9,0.7
				c0.2,0.2,0.4,0.6,0.5,0.9c0.1,0.4,0.1,0.7,0.1,1.1v0.4c0,0.4-0.1,0.6-0.1,0.8c-0.1,0.2-0.1,0.4-0.2,0.6c-0.2,0.3-0.5,0.6-0.9,0.8
				c0.4,0.2,0.7,0.4,0.9,0.8s0.2,0.9,0.2,1.5v0.7c0,1-0.2,1.8-0.8,2.3c-0.5,0.6-1.2,0.8-2.4,0.8L995.2,521.5z M996.9,511.5v3.2h0.8
				c0.5,0,0.9-0.1,1.1-0.4c0.2-0.2,0.2-0.7,0.2-1.2c0-0.5-0.1-0.9-0.3-1.2c-0.2-0.2-0.6-0.4-1.2-0.4H996.9z M996.9,516.2v3.7h0.7
				c0.4,0,0.6-0.1,0.8-0.2c0.2-0.1,0.4-0.2,0.4-0.4c0.1-0.2,0.1-0.4,0.2-0.6c0.1-0.2,0.1-0.5,0-0.8c0-0.2-0.1-0.6-0.1-0.7
				c-0.1-0.2-0.1-0.4-0.2-0.6c-0.1-0.1-0.2-0.2-0.4-0.4c-0.2-0.1-0.4-0.1-0.7-0.1L996.9,516.2z"/>
		</g>
		<path id="XMLID_44_" class="st5" d="M1003.6,506.4c-0.1-0.1-0.1-0.1-0.2-0.2c-0.1-0.1-0.1-0.1-0.1-0.1s-0.1-0.1-0.1-0.1
			c-0.1-0.1-0.1-0.1-0.1-0.1c-0.1-0.1-0.1-0.1-0.1-0.1c-0.1-0.1-0.1-0.1-0.2-0.2l-0.1-0.1c-0.1-0.1-0.1-0.1-0.2-0.2c0,0,0,0-0.1-0.1
			s-0.1-0.1-0.2-0.2l0,0c-0.5-0.4-1-0.7-1.6-1l0,0c-0.1-0.1-0.2-0.1-0.2-0.2c0,0,0,0-0.1-0.1c-0.1-0.1-0.2-0.1-0.2-0.1l-0.1-0.1
			c-0.1-0.1-0.1-0.1-0.2-0.1c-0.1-0.1-0.1-0.1-0.1-0.1c-0.1-0.1-0.1-0.1-0.2-0.1c-0.1,0-0.1-0.1-0.1-0.1c-0.1-0.1-0.1-0.1-0.1-0.1
			c-0.1-0.1-0.1-0.1-0.2-0.1c-0.1,0-0.1-0.1-0.1-0.1c-0.1,0-0.1-0.1-0.2-0.1l-0.1-0.1c-0.1,0-0.2-0.1-0.2-0.1c0,0,0,0-0.1-0.1
			c-0.1,0-0.2-0.1-0.2-0.1l0,0c-0.6-0.2-1.2-0.3-1.8-0.4l0,0c-0.1,0-0.2-0.1-0.3-0.1l0,0c-0.1,0-0.2,0-0.3-0.1c0,0,0,0-0.1,0
			s-0.2,0-0.2,0h-0.1c-0.1,0-0.2,0-0.2-0.1c-0.1,0-0.1,0-0.2,0c-0.1,0-0.1,0-0.2,0c-0.1,0-0.2,0-0.4,0l0,0c-0.1,0-0.2,0-0.3,0.1
			c-0.1,0-0.1,0-0.2,0c-0.1,0-0.1,0-0.2,0c-0.1,0-0.2,0-0.2,0.1h-0.1c-0.1,0-0.2,0-0.2,0c0,0,0,0-0.1,0c-0.1,0-0.2,0-0.3,0.1l0,0
			c-0.1,0-0.2,0.1-0.3,0.1l0,0c-0.6,0.1-1.2,0.2-1.8,0.4l0,0c-0.1,0-0.2,0.1-0.2,0.1s0,0-0.1,0.1c-0.1,0-0.2,0.1-0.2,0.1l-0.1,0.1
			c-0.1,0-0.1,0.1-0.2,0.1c-0.1,0.1-0.1,0.1-0.1,0.1c-0.1,0.1-0.1,0.1-0.2,0.1c-0.1,0-0.1,0.1-0.1,0.1c-0.1,0.1-0.1,0.1-0.1,0.1
			c-0.1,0.1-0.1,0.1-0.2,0.1c-0.1,0.1-0.1,0.1-0.1,0.1c-0.1,0.1-0.1,0.1-0.2,0.1l-0.1,0.1c-0.1,0.1-0.2,0.1-0.2,0.1c0,0,0,0-0.1,0.1
			c-0.1,0.1-0.2,0.1-0.2,0.2l0,0c-0.6,0.3-1.1,0.7-1.6,1l0,0c-0.1,0.1-0.1,0.1-0.2,0.2c0,0,0,0-0.1,0.1c-0.1,0.1-0.1,0.1-0.2,0.2
			l-0.1,0.1c-0.1,0.1-0.1,0.1-0.2,0.2c-0.1,0.1-0.1,0.1-0.1,0.1c-0.1,0.1-0.1,0.1-0.1,0.1c-0.1,0.1-0.1,0.1-0.1,0.1
			c-0.1,0.1-0.1,0.1-0.1,0.1c-0.1,0.1-0.2,0.2-0.2,0.2c-0.1,0.1-0.2,0.2-0.2,0.2c-0.1,0.1-0.1,0.1-0.1,0.1c-0.1,0.1-0.1,0.1-0.1,0.1
			c-0.1,0.1-0.1,0.1-0.1,0.1c-0.1,0.1-0.1,0.1-0.1,0.1c-0.1,0.1-0.1,0.1-0.2,0.2l-0.1,0.1c-0.1,0.1-0.1,0.1-0.2,0.2c0,0,0,0-0.1,0.1
			c-0.1,0.1-0.1,0.1-0.2,0.2l0,0c-0.4,0.5-0.7,1-1,1.6l0,0c-0.1,0.1-0.1,0.2-0.2,0.2c0,0,0,0-0.1,0.1c-0.1,0.1-0.1,0.2-0.1,0.2
			l-0.1,0.1c-0.1,0.1-0.1,0.1-0.1,0.2c-0.1,0.1-0.1,0.1-0.1,0.1c-0.1,0.1-0.1,0.1-0.1,0.2s-0.1,0.1-0.1,0.1
			c-0.1,0.1-0.1,0.1-0.1,0.1c-0.1,0.1-0.1,0.1-0.1,0.2s-0.1,0.1-0.1,0.1c0,0.1-0.1,0.1-0.1,0.2c0,0-0.1,0.1,0,0.1
			c0,0.1-0.1,0.2-0.1,0.2c0,0,0,0-0.1,0.1c0,0.1-0.1,0.2-0.1,0.2l0,0c-0.2,0.6-0.3,1.2-0.4,1.8l0,0c0,0.1-0.1,0.2-0.1,0.3l0,0
			c0,0.1,0,0.2-0.1,0.3c0,0-0.1,0.1,0,0.1c0,0.1,0,0.2,0,0.2v0.1c0,0.1,0,0.2-0.1,0.2c0,0.1,0,0.1,0,0.2c0,0.1,0,0.1,0,0.2
			c0,0.1-0.1,0.2,0,0.4c0,0.1,0.1,0.2,0,0.4c0,0.1,0,0.1,0,0.2c0,0.1,0,0.1,0,0.2c0,0.1,0,0.2,0.1,0.2v0.1c0,0.1,0,0.2,0,0.2
			c0,0,0.1,0.1,0,0.1c0,0.1,0,0.2,0.1,0.3l0,0c0,0.1,0.1,0.2,0.1,0.3l0,0c0.1,0.6,0.2,1.2,0.4,1.8l0,0c0,0.1,0.1,0.2,0.1,0.2
			s0,0,0.1,0.1c0,0.1,0.1,0.2,0.1,0.2c0,0,0.1,0.1,0,0.1c0,0.1,0.1,0.1,0.1,0.2c0.1,0.1,0,0.1,0.1,0.1c0.1,0.1,0.1,0.1,0.1,0.2
			c0.1,0.1,0.1,0.1,0.1,0.1c0.1,0.1,0.1,0.1,0.1,0.1c0.1,0.1,0.1,0.1,0.1,0.2c0.1,0.1,0.1,0.1,0.1,0.1c0.1,0.1,0.1,0.1,0.1,0.2
			l0.1,0.1c0.1,0.1,0.1,0.2,0.1,0.2c0,0,0,0,0.1,0.1c0.1,0.1,0.1,0.2,0.2,0.2l0,0c0.3,0.6,0.7,1.1,1,1.6l0,0
			c0.1,0.1,0.1,0.1,0.2,0.2l0,0c0.1,0.1,0.1,0.1,0.2,0.2l0.1,0.1c0.1,0.1,0.1,0.1,0.2,0.2c0.1,0.1,0.1,0.1,0.1,0.1
			c0.1,0.1,0.1,0.1,0.2,0.2c0.1,0.1,0.1,0.1,0.1,0.1c0.1,0.1,0.1,0.1,0.1,0.1c0.1,0.1,0.1,0.1,0.2,0.2L1003.6,506.4z"/>
		<path id="XMLID_43_" class="st6" d="M1003.6,506.4l-18.4,18.4l0,0c0.1,0.1,0.2,0.2,0.2,0.2c0.1,0.1,0.1,0.1,0.1,0.1
			c0.1,0.1,0.1,0.1,0.1,0.1s0.1,0.1,0.2,0.2c0.1,0.1,0.1,0.1,0.1,0.1c0.1,0.1,0.1,0.1,0.2,0.2l0.1,0.1c0.1,0.1,0.1,0.1,0.2,0.2
			c0,0,0,0,0.1,0.1c0.1,0.1,0.1,0.1,0.2,0.2l0,0c0.5,0.4,1,0.7,1.6,1l0,0c0.1,0.1,0.2,0.1,0.2,0.2c0,0,0,0,0.1,0.1
			c0.1,0.1,0.2,0.1,0.2,0.1l0.1,0.1c0.1,0.1,0.1,0.1,0.2,0.1c0.1,0.1,0.1,0.1,0.1,0.1c0.1,0.1,0.1,0.1,0.2,0.1
			c0.1,0.1,0.1,0.1,0.1,0.1c0.1,0.1,0.1,0.1,0.1,0.1c0.1,0.1,0.1,0.1,0.2,0.1c0.1,0.1,0.1,0.1,0.1,0.1c0.1,0,0.1,0.1,0.2,0.1
			l0.1,0.1c0.1,0,0.2,0.1,0.2,0.1c0,0,0,0,0.1,0.1c0.1,0,0.2,0.1,0.2,0.1l0,0c0.6,0.2,1.2,0.3,1.8,0.4l0,0c0.1,0,0.2,0.1,0.3,0.1
			l0,0c0.1,0,0.2,0,0.3,0.1c0,0,0,0,0.1,0s0.2,0,0.2,0h0.1c0.1,0,0.2,0,0.2,0.1c0.1,0,0.1,0,0.2,0c0.1,0,0.1,0,0.2,0
			c0.1,0,0.2,0,0.3,0.1l0,0c0.1,0,0.2,0,0.4,0c0.1,0,0.1,0,0.2,0c0.1,0,0.1,0,0.2,0c0.1,0,0.2,0,0.2-0.1h0.1c0.1,0,0.2,0,0.2,0
			c0,0,0,0,0.1,0c0.1,0,0.2,0,0.3-0.1l0,0c0.1,0,0.2-0.1,0.3-0.1l0,0c0.6-0.1,1.2-0.2,1.8-0.4l0,0c0.1,0,0.2-0.1,0.2-0.1
			s0,0,0.1-0.1c0.1,0,0.2-0.1,0.2-0.1l0.1-0.1c0.1,0,0.1-0.1,0.2-0.1c0.1-0.1,0.1-0.1,0.1-0.1c0.1-0.1,0.1-0.1,0.2-0.1
			c0.1-0.1,0.1-0.1,0.1-0.1c0.1-0.1,0.1-0.1,0.1-0.1c0.1-0.1,0.1-0.1,0.2-0.1c0.1-0.1,0.1-0.1,0.1-0.1c0.1-0.1,0.1-0.1,0.2-0.1
			l0.1-0.1c0.1-0.1,0.2-0.1,0.2-0.1c0,0,0,0,0.1-0.1c0.1-0.1,0.2-0.1,0.2-0.2l0,0c0.6-0.3,1.1-0.7,1.6-1l0,0
			c0.1-0.1,0.1-0.1,0.2-0.2c0,0,0,0,0.1-0.1c0.1-0.1,0.1-0.1,0.2-0.2l0.1-0.1c0.1-0.1,0.1-0.1,0.2-0.2c0.1-0.1,0.1-0.1,0.1-0.1
			s0.1-0.1,0.1-0.1c0.1-0.1,0.1-0.1,0.1-0.1c0.1-0.1,0.1-0.1,0.1-0.1c0.1-0.1,0.2-0.2,0.2-0.2c0.1-0.1,0.2-0.2,0.2-0.2
			c0.1-0.1,0.1-0.1,0.1-0.1c0.1-0.1,0.1-0.1,0.1-0.1c0.1-0.1,0.1-0.1,0.1-0.1c0.1-0.1,0.1-0.1,0.1-0.1c0.1-0.1,0.1-0.1,0.2-0.2
			l0.1-0.1c0.1-0.1,0.1-0.1,0.2-0.2c0,0,0,0,0.1-0.1c0.1-0.1,0.1-0.1,0.2-0.2l0,0c0.4-0.5,0.7-1,1-1.6l0,0c0.1-0.1,0.1-0.2,0.2-0.2
			c0,0,0,0,0.1-0.1s0.1-0.2,0.1-0.2l0.1-0.1c0.1-0.1,0.1-0.1,0.1-0.2c0.1-0.1,0.1-0.1,0.1-0.1c0.1-0.1,0.1-0.1,0.1-0.2
			c0.1-0.1,0.1-0.1,0.1-0.1c0.1-0.1,0.1-0.1,0.1-0.1c0.1-0.1,0.1-0.1,0.1-0.2c0.1-0.1,0.1-0.1,0.1-0.1s0.1-0.1,0.1-0.2l0.1-0.1
			c0-0.1,0.1-0.2,0.1-0.2c0,0,0,0,0.1-0.1c0-0.1,0.1-0.2,0.1-0.2l0,0c0.2-0.6,0.3-1.2,0.4-1.8l0,0c0-0.1,0.1-0.2,0.1-0.3l0,0
			c0-0.1,0-0.2,0.1-0.3c0,0,0,0,0-0.1c0-0.1,0-0.2,0-0.2v-0.1c0-0.1,0-0.2,0.1-0.2c0-0.1,0-0.1,0-0.2c0-0.1,0-0.1,0-0.2
			c0-0.1,0-0.2,0-0.4l0,0c0-0.1,0-0.2-0.1-0.3c0-0.1,0-0.1,0-0.2c0-0.1,0-0.1,0-0.2c0-0.1,0-0.2-0.1-0.2v-0.1c0-0.1,0-0.2,0-0.2
			c0,0,0,0,0-0.1c0-0.1,0-0.2-0.1-0.3l0,0c0-0.1-0.1-0.2-0.1-0.3l0,0c-0.1-0.6-0.2-1.2-0.4-1.8l0,0c0-0.1-0.1-0.2-0.1-0.2
			s0,0-0.1-0.1c0-0.1-0.1-0.2-0.1-0.2l-0.1-0.1c0-0.1-0.1-0.1-0.1-0.2c-0.1-0.1-0.1-0.1-0.1-0.1c-0.1-0.1-0.1-0.1-0.1-0.2
			c-0.1-0.1-0.1-0.1-0.1-0.1c-0.1-0.1-0.1-0.1-0.1-0.1c-0.1-0.1-0.1-0.1-0.1-0.2s-0.1-0.1-0.1-0.1c-0.1-0.1-0.1-0.1-0.1-0.2
			l-0.1-0.1c-0.1-0.1-0.1-0.2-0.1-0.2c0,0,0,0-0.1-0.1c-0.1-0.1-0.1-0.2-0.2-0.2l0,0c-0.3-0.6-0.7-1.1-1-1.6l0,0
			c-0.1-0.1-0.1-0.1-0.2-0.2c0,0,0,0-0.1-0.1c-0.1-0.1-0.1-0.1-0.2-0.2l-0.1-0.1c-0.1-0.1-0.1-0.1-0.2-0.2s-0.1-0.1-0.1-0.1
			c-0.1-0.1-0.1-0.1-0.1-0.1c-0.1-0.1-0.1-0.1-0.1-0.1c-0.1-0.1-0.1-0.1-0.1-0.1C1003.8,506.6,1003.8,506.5,1003.6,506.4
			L1003.6,506.4z"/>
	</g>
	<g>
		<rect x="1018.4" y="511.5" class="st0" width="9.1" height="2.9"/>
		<rect x="1018.4" y="516.9" class="st0" width="9.1" height="2.9"/>
	</g>
	<g>
		<path class="st0" d="M1051.5,518.8c-0.2,0-0.4,0.1-0.6,0.2c-0.3,0.3-0.3,0.7,0,1c0.3,0.3,0.7,0.3,1,0c0.1-0.2,0.3-0.2,0.3-0.5
			c0-0.2-0.1-0.4-0.2-0.6C1051.8,518.8,1051.7,518.8,1051.5,518.8z"/>
		<path class="st0" d="M1051.4,504.8c-6,0-10.8,4.9-10.8,10.8c0,6,4.9,10.8,10.8,10.8c6,0,10.8-4.9,10.8-10.8
			C1062.2,509.7,1057.4,504.8,1051.4,504.8z M1052.7,520.8c-0.3,0.4-0.8,0.6-1.3,0.6c-0.5,0-0.9-0.2-1.3-0.6
			c-0.4-0.3-0.6-0.8-0.6-1.3c0-0.5,0.2-0.9,0.6-1.3c0.7-0.7,1.9-0.7,2.6,0c0.4,0.3,0.6,0.8,0.6,1.3
			C1053.2,520,1053,520.4,1052.7,520.8z M1055.7,517.7c-0.2,0.2-0.6,0.2-0.8,0c-1-0.9-2.3-1.5-3.6-1.5c-1.3,0-2.6,0.5-3.6,1.5
			c-0.1,0.1-0.2,0.2-0.4,0.2s-0.2-0.1-0.4-0.2c-0.2-0.2-0.2-0.6,0-0.8c2.5-2.5,6.4-2.5,8.8,0
			C1055.9,517.2,1055.9,517.6,1055.7,517.7z M1057.6,515.9c-0.1,0.1-0.2,0.2-0.4,0.2c-0.1,0-0.2-0.1-0.4-0.2c-3-3-7.9-3-10.9,0
			c-0.1,0.1-0.2,0.2-0.4,0.2s-0.2-0.1-0.4-0.2c-0.2-0.2-0.2-0.6,0-0.8c1.7-1.7,3.9-2.6,6.3-2.6c2.3,0,4.5,0.9,6.1,2.6
			C1057.8,515.3,1057.8,515.7,1057.6,515.9z M1059.4,514.1c-0.1,0.1-0.2,0.2-0.4,0.2s-0.2-0.1-0.4-0.2c-4-4-10.5-4-14.5,0
			c-0.1,0.1-0.2,0.2-0.4,0.2s-0.2-0.1-0.4-0.2c-0.2-0.2-0.2-0.6,0-0.8c2.1-2.2,5-3.4,8.1-3.4c3.1,0,5.9,1.2,8,3.4
			C1059.7,513.5,1059.7,513.9,1059.4,514.1z"/>
	</g>
</g>
<g>
	<g>
		<path class="st0" d="M324.9,10.4c-15.1,0-27.3,12.2-27.3,27.3c0,15.1,12.2,27.3,27.3,27.3c15.1,0,27.3-12.2,27.3-27.3
			C352.1,22.6,339.9,10.4,324.9,10.4z M340.7,44c0.2,5.4-4.2,9.6-9.6,9.6h-12.8c-5.2,0-9.6-4.3-9.6-9.6V31.2c0-5.2,4.3-9.6,9.6-9.6
			h12.8c5.2,0,9.6,4.3,9.6,9.6V44z"/>
		<path class="st0" d="M331.2,24.6c0,0.2-12.6,0.2-12.6,0c-3.7,0-6.6,2.9-6.6,6.6V44c0,3.7,2.9,6.6,6.6,6.6h12.6
			c3.7,0,6.6-2.9,6.6-6.6V31.2C337.8,27.5,334.9,24.6,331.2,24.6z M325,45.7c-4.3,0-7.9-3.5-7.9-7.9s3.5-7.9,7.9-7.9
			c4.3,0,7.9,3.2,7.9,7.9C332.9,42.2,329.3,45.7,325,45.7z M333.3,31.1c-1,0-1.8-0.8-1.8-1.8c0-1,0.8-1.8,1.8-1.8
			c1,0,1.8,0.8,1.8,1.8C335.2,30.2,334.4,31.1,333.3,31.1z"/>
		<path class="st0" d="M325,32.6c-2.8,0-5.1,2.3-5.1,5.1c0,2.8,2.3,5.1,5.1,5.1c2.8,0,5.1-2.3,5.1-5.1
			C330.1,34.9,327.8,32.6,325,32.6z"/>
	</g>
	<path class="st0" d="M253.4,10.4c-15.1,0-27.1,12.2-27.1,27.3c0,13.5,9.9,24.7,22.8,26.9V45.5h-6.8h-0.2v-7.9h0.2h6.8v-6
		c0-6.9,4.2-10.6,10.3-10.6c0,0,0.1,0,0.1,0c0,0,0,0,0,0c2.9,0,6.2,0.5,6.2,0.5v6.8h-0.2h-3.4c-3.4,0-4.5,2.2-4.5,4.3v5.1h7.6
		l-1.2,7.9h-6.3v19.1c13.1-2.2,23-13.4,23-27C280.6,22.6,268.5,10.4,253.4,10.4z"/>
	<g>
		<path class="st0" d="M396.4,10.4c-15.1,0-27.3,12.2-27.3,27.3c0,15.1,12.2,27.3,27.3,27.3s27.3-12.2,27.3-27.3
			C423.7,22.6,411.4,10.4,396.4,10.4z M397.6,52.9c-2.6,0-5.1-0.6-7.4-1.8l-8.6,2.2l2.3-8.5c-1.2-2.3-2-4.9-2-7.6
			c0-8.6,7.1-15.7,15.7-15.7s15.7,7.1,15.7,15.7S406.2,52.9,397.6,52.9z"/>
		<path class="st0" d="M397.5,24.7c-6.9,0-12.6,5.7-12.6,12.6c0,2.3,0.6,4.6,1.8,6.6l0.3,0.6l-1.2,4.8l4.8-1.5l0.5,0.3
			c2,1.2,4.2,1.8,6.5,1.8c6.9,0,12.6-5.7,12.6-12.6C410.1,30.4,404.4,24.7,397.5,24.7z M404.7,41.5c-0.5,1.2-1.5,2-2.8,2.2
			c-1.1,0.3-2-0.2-3.1-0.5c-0.9-0.3-1.8-0.8-2.6-1.2c-1.7-1.1-3.1-2.5-4.3-4c-0.3-0.5-0.6-1.1-0.9-1.5c-0.3-0.6-0.8-1.4-0.9-2.2
			c-0.2-0.3-0.2-0.6-0.2-0.9c0-1.1,0.5-2.3,1.4-3.1c0.6-0.5,1.4-0.6,2-0.3c0.6,0.5,0.9,1.4,1.2,2c0.3,0.5,0.6,1.1,0.5,1.7
			c-0.2,0.6-0.6,1.1-0.9,1.5c-0.3,0.3-0.3,0.6-0.2,0.9c1.2,2,2.9,3.4,5.1,4.3c0.3,0.2,0.6,0.2,0.8-0.2c0.5-0.5,0.8-1.2,1.4-1.5
			c0.8-0.3,1.7,0,2.3,0.5c0.5,0.5,1.5,0.8,1.4,1.2C404.9,40.8,404.9,41.2,404.7,41.5z"/>
	</g>
	<g>
		<path class="st0" d="M472.2,37.5l-7.2-3.9c-0.2-0.3-1.2,0-1.2,0.3v7.6c0,0.5,0.9,0.6,1.2,0.5l7.6-3.7
			C472.8,38.1,472.5,37.7,472.2,37.5z"/>
		<path class="st0" d="M467.7,10.4c-15.1,0-27.3,12.2-27.3,27.3c0,15.1,12.2,27.3,27.3,27.3c15.1,0,27.3-12.2,27.3-27.3
			C495,22.6,482.8,10.4,467.7,10.4z M482.4,41.7c0,3.5-2.9,6.5-6.5,6.5h-16.8c-3.5,0-6.5-2.9-6.5-6.5v-7.9c0-3.5,2.9-6.5,6.5-6.5
			h16.8c3.5,0,6.5,2.9,6.5,6.5V41.7z"/>
	</g>
	<g id="XMLID_1_">
		<circle id="XMLID_10_" class="st1" cx="38.9" cy="37.5" r="32.8"/>
		<circle id="XMLID_9_" class="st2" cx="38.9" cy="37.5" r="32.1"/>
		<circle id="XMLID_8_" class="st1" cx="38.9" cy="37.5" r="24.8"/>
		<circle id="XMLID_7_" class="st3" cx="38.9" cy="37.5" r="23.4"/>
		<g id="XMLID_4_">
			<path id="XMLID_6_" class="st4" d="M37.8,31.8h-4.2v-0.9c0-0.9-0.2-1.7-0.6-2.3s-1.2-0.9-2.3-0.9c-0.6,0-0.9,0.2-1.4,0.3
				s-0.6,0.5-0.9,0.9c-0.2,0.5-0.3,0.8-0.6,1.2c-0.3,0.5-0.2,0.9-0.2,1.4c0,0.6,0,1.1,0.2,1.4c0,0.5,0.2,0.8,0.3,0.9
				c0.2,0.3,0.3,0.6,0.8,0.8c0.2,0.2,0.6,0.5,1.2,0.6l3.1,1.2c0.9,0.3,1.7,0.8,2.3,1.2c0.6,0.6,0.9,0.9,1.4,1.7
				c0.2,0.6,0.6,1.4,0.6,2.2c0.2,0.8,0.2,1.7,0.2,2.8c0,1.2-0.2,2.3-0.3,3.4s-0.6,2-1.2,2.8c-0.6,0.8-1.2,1.2-2.3,1.8
				c-0.9,0.5-2,0.6-3.4,0.6c-1.1,0-2-0.2-2.8-0.5c-0.9-0.5-1.7-0.8-2.3-1.4c-0.6-0.6-1.1-1.2-1.5-2.2c-0.5-0.9-0.6-1.7-0.6-2.8v-1.5
				h4.2v1.2c0,0.9,0.2,1.5,0.8,2c0.5,0.6,1.2,0.9,2.3,0.9c0.6,0,1.2-0.2,1.7-0.3c0.5-0.2,0.6-0.5,0.9-0.9c0.2-0.5,0.3-0.8,0.3-1.4
				c0.2-0.6,0-1.1,0-1.7c0-0.9-0.2-1.4-0.2-1.8C33,42,33,41.7,32.9,41.4c-0.2-0.2-0.6-0.6-0.8-0.8c-0.3-0.2-0.8-0.3-1.2-0.6
				l-2.9-1.2c-1.8-0.8-3.1-1.7-3.5-2.9c-0.6-1.2-0.9-2.8-0.9-4.5c0-1.1,0.2-2,0.5-3.1c0.3-0.9,0.8-1.8,1.4-2.5
				c0.6-0.8,1.2-1.2,2.2-1.7c0.9-0.5,2-0.6,3.1-0.6c1.1,0,2,0.2,2.8,0.6c0.9,0.5,1.5,0.9,2.2,1.5c1.2,1.2,2,2.8,1.8,4.5L37.8,31.8z"
				/>
			<path id="XMLID_5_" class="st4" d="M40.9,52.5v-29h6c1.2,0,2.3,0.2,3.4,0.6c0.9,0.5,1.7,0.9,2.3,1.7c0.6,0.6,0.9,1.4,1.2,2.3
				c0.2,0.9,0.3,1.8,0.3,2.8V32c0,0.9-0.2,1.4-0.2,2c-0.2,0.6-0.3,0.9-0.6,1.4c-0.6,0.8-1.2,1.4-2.2,2c0.9,0.6,1.7,1.1,2.2,2
				c0.5,0.9,0.6,2.2,0.6,3.7v1.7c0,2.6-0.6,4.5-2,5.9c-1.2,1.4-3.1,2-6,2L40.9,52.5z M45,27.4v8h2c1.2,0,2.3-0.3,2.8-1.1
				c0.5-0.6,0.6-1.7,0.6-3.1c0-1.2-0.3-2.3-0.8-2.9c-0.5-0.6-1.4-0.9-2.9-0.9H45z M45,39.1v9.2h1.7c0.9,0,1.4-0.2,2-0.5
				c0.5-0.2,0.9-0.6,1.1-1.1c0.2-0.5,0.3-0.9,0.5-1.5c0.2-0.6,0.2-1.2,0-2c0-0.6-0.2-1.4-0.2-1.8c-0.2-0.6-0.3-0.9-0.6-1.4
				c-0.3-0.3-0.6-0.6-1.1-0.9c-0.5-0.2-1.1-0.2-1.8-0.3L45,39.1z"/>
		</g>
		<path id="XMLID_3_" class="st5" d="M62,14.4c-0.2-0.2-0.3-0.3-0.6-0.6c-0.2-0.2-0.2-0.2-0.3-0.3c-0.2-0.2-0.2-0.2-0.3-0.3
			s-0.2-0.2-0.3-0.3s-0.2-0.2-0.2-0.2c-0.2-0.2-0.3-0.3-0.5-0.5l-0.2-0.2c-0.2-0.2-0.3-0.3-0.5-0.5c0,0,0,0-0.2-0.2
			s-0.3-0.3-0.6-0.5l0,0c-1.2-0.9-2.6-1.7-4-2.5l0,0c-0.2-0.2-0.5-0.2-0.6-0.5c0,0,0,0-0.2-0.2S53.2,7.8,53,7.6l-0.2-0.2
			c-0.2-0.2-0.3-0.2-0.6-0.3C52.1,7,52.1,7,52,7c-0.2-0.2-0.3-0.2-0.5-0.2c-0.2,0-0.3-0.2-0.3-0.2c-0.2-0.2-0.3-0.2-0.3-0.2
			c-0.2-0.2-0.3-0.2-0.5-0.2s-0.2-0.2-0.3-0.2s-0.3-0.2-0.6-0.2l-0.2-0.2c-0.2,0-0.5-0.2-0.6-0.2c0,0,0,0-0.2-0.2
			c-0.2,0-0.5-0.2-0.6-0.2l0,0c-1.5-0.5-3.1-0.8-4.6-0.9l0,0c-0.2,0-0.6-0.2-0.8-0.2l0,0c-0.2,0-0.5,0-0.8-0.2c0,0,0,0-0.2,0
			s-0.5,0-0.6,0h-0.2c-0.2,0-0.5,0-0.6-0.2c-0.2,0-0.2,0-0.5,0c-0.2,0-0.2,0-0.5,0c-0.2,0-0.5,0-0.9,0l0,0c-0.2,0-0.5,0-0.8,0.2
			c-0.2,0-0.2,0-0.5,0c-0.2,0-0.2,0-0.5,0c-0.2,0-0.5,0-0.6,0.2h-0.2c-0.2,0-0.5,0-0.6,0c0,0,0,0-0.2,0c-0.2,0-0.5,0-0.8,0.2l0,0
			c-0.2,0-0.6,0.2-0.8,0.2l0,0c-1.5,0.2-3.1,0.6-4.6,0.9l0,0c-0.2,0-0.6,0.2-0.6,0.2s0,0-0.2,0.2c-0.2,0-0.5,0.2-0.6,0.2l-0.2,0.2
			c-0.2,0-0.3,0.2-0.6,0.2c-0.2,0.2-0.2,0.2-0.3,0.2c-0.2,0.2-0.3,0.2-0.5,0.2c-0.2,0-0.3,0.2-0.3,0.2C25.6,7,25.5,7,25.5,7
			c-0.2,0.2-0.3,0.2-0.5,0.2c-0.2,0.2-0.2,0.2-0.3,0.2c-0.2,0.2-0.3,0.2-0.6,0.3l-0.2,0.2c-0.2,0.2-0.5,0.2-0.6,0.3c0,0,0,0-0.2,0.2
			s-0.5,0.2-0.6,0.5l0,0c-1.4,0.8-2.8,1.7-4,2.5l0,0c-0.2,0.2-0.3,0.3-0.6,0.5c0,0,0,0-0.2,0.2c-0.2,0.2-0.3,0.3-0.6,0.6L17,12.6
			c-0.2,0.2-0.3,0.3-0.5,0.5c-0.2,0.2-0.2,0.2-0.2,0.2c-0.2,0.2-0.2,0.2-0.3,0.3s-0.2,0.2-0.3,0.3c-0.2,0.2-0.2,0.2-0.3,0.3
			c-0.2,0.2-0.5,0.5-0.6,0.6c-0.2,0.2-0.5,0.5-0.6,0.6c-0.2,0.2-0.2,0.2-0.3,0.3c-0.2,0.2-0.2,0.2-0.3,0.3c-0.2,0.2-0.2,0.2-0.3,0.3
			c-0.2,0.2-0.2,0.2-0.2,0.2c-0.2,0.2-0.3,0.3-0.5,0.5L12.5,17c-0.2,0.2-0.3,0.3-0.6,0.6c0,0,0,0-0.2,0.2c-0.2,0.2-0.3,0.3-0.5,0.6
			l0,0c-0.9,1.2-1.7,2.6-2.5,4l0,0c-0.2,0.2-0.2,0.5-0.5,0.6c0,0,0,0-0.2,0.2C8,23.4,8,23.7,7.9,23.8L7.7,24
			c-0.2,0.2-0.2,0.3-0.3,0.6c-0.2,0.2-0.2,0.2-0.2,0.3c-0.2,0.2-0.2,0.3-0.2,0.5c0,0.2-0.2,0.3-0.2,0.3C6.8,25.8,6.8,26,6.8,26
			c-0.2,0.2-0.2,0.3-0.2,0.5c0,0.2-0.2,0.2-0.2,0.3c0,0.2-0.2,0.3-0.2,0.6c0,0-0.2,0.2,0,0.2c0,0.2-0.2,0.5-0.2,0.6c0,0,0,0-0.2,0.2
			c0,0.2-0.2,0.5-0.2,0.6l0,0C5.4,30.4,5.1,32,5,33.5l0,0c0,0.2-0.2,0.6-0.2,0.8l0,0c0,0.2,0,0.5-0.2,0.8c0,0-0.2,0.2,0,0.2
			c0,0.2,0,0.5,0,0.6V36c0,0.2,0,0.5-0.2,0.6c0,0.2,0,0.2,0,0.5c0,0.2,0,0.2,0,0.5s-0.2,0.6,0,0.9c0,0.2,0.2,0.6,0,0.9
			c0,0.2,0,0.2,0,0.5c0,0.2,0,0.2,0,0.5c0,0.2,0,0.5,0.2,0.6v0.2c0,0.2,0,0.5,0,0.6c0,0,0.2,0.2,0,0.2c0,0.2,0,0.5,0.2,0.8l0,0
			c0,0.2,0.2,0.6,0.2,0.8l0,0c0.2,1.5,0.6,3.1,0.9,4.6l0,0c0,0.2,0.2,0.6,0.2,0.6s0,0,0.2,0.2c0,0.2,0.2,0.5,0.2,0.6
			c0,0,0.2,0.2,0,0.2c0,0.2,0.2,0.3,0.2,0.6c0.2,0.2,0,0.2,0.2,0.3c0.2,0.2,0.2,0.3,0.2,0.5C7,51.1,7,51.2,7,51.2
			c0.2,0.2,0.2,0.3,0.2,0.3c0.2,0.2,0.2,0.3,0.2,0.5c0.2,0.2,0.2,0.2,0.2,0.3c0.2,0.2,0.2,0.3,0.3,0.6l0.2,0.2
			C8,53.3,8,53.6,8.2,53.7c0,0,0,0,0.2,0.2c0.2,0.2,0.2,0.5,0.5,0.6l0,0c0.8,1.4,1.7,2.8,2.5,4l0,0c0.2,0.2,0.3,0.3,0.5,0.6l0,0
			c0.2,0.2,0.3,0.3,0.6,0.6l0.2,0.2c0.2,0.2,0.3,0.3,0.5,0.5c0.2,0.2,0.2,0.2,0.2,0.2c0.2,0.2,0.2,0.2,0.5,0.5
			c0.2,0.2,0.2,0.2,0.3,0.3s0.2,0.2,0.3,0.3c0.2,0.2,0.3,0.3,0.6,0.6L62,14.4z"/>
		<path id="XMLID_2_" class="st6" d="M62,14.4L15.7,60.6l0,0c0.2,0.2,0.5,0.5,0.6,0.6c0.2,0.2,0.2,0.2,0.3,0.3
			c0.2,0.2,0.2,0.2,0.3,0.3s0.2,0.2,0.5,0.5c0.2,0.2,0.2,0.2,0.2,0.2c0.2,0.2,0.3,0.3,0.5,0.5l0.2,0.2c0.2,0.2,0.3,0.3,0.6,0.6
			c0,0,0,0,0.2,0.2c0.2,0.2,0.3,0.3,0.6,0.5l0,0c1.2,0.9,2.6,1.7,4,2.5l0,0c0.2,0.2,0.5,0.2,0.6,0.5c0,0,0,0,0.2,0.2
			c0.2,0.2,0.5,0.2,0.6,0.3l0.2,0.2c0.2,0.2,0.3,0.2,0.6,0.3c0.2,0.2,0.2,0.2,0.3,0.2c0.2,0.2,0.3,0.2,0.5,0.2
			c0.2,0.2,0.3,0.2,0.3,0.2c0.2,0.2,0.3,0.2,0.3,0.2c0.2,0.2,0.3,0.2,0.5,0.2c0.2,0.2,0.2,0.2,0.3,0.2s0.3,0.2,0.6,0.2l0.2,0.2
			c0.2,0,0.5,0.2,0.6,0.2c0,0,0,0,0.2,0.2c0.2,0,0.5,0.2,0.6,0.2l0,0c1.5,0.5,3.1,0.8,4.6,0.9l0,0c0.2,0,0.6,0.2,0.8,0.2l0,0
			c0.2,0,0.5,0,0.8,0.2c0,0,0,0,0.2,0s0.5,0,0.6,0h0.2c0.2,0,0.5,0,0.6,0.2c0.2,0,0.2,0,0.5,0c0.2,0,0.2,0,0.5,0
			c0.2,0,0.5,0,0.8,0.2l0,0c0.2,0,0.5,0,0.9,0c0.2,0,0.2,0,0.5,0c0.2,0,0.2,0,0.5,0c0.2,0,0.5,0,0.6-0.2h0.2c0.2,0,0.5,0,0.6,0
			c0,0,0,0,0.2,0s0.5,0,0.8-0.2l0,0c0.2,0,0.6-0.2,0.8-0.2l0,0c1.5-0.2,3.1-0.6,4.6-0.9l0,0c0.2,0,0.6-0.2,0.6-0.2s0,0,0.2-0.2
			c0.2,0,0.5-0.2,0.6-0.2l0.2-0.2c0.2,0,0.3-0.2,0.6-0.2c0.2-0.2,0.2-0.2,0.3-0.2C51.7,69,51.8,69,52,69c0.2-0.2,0.3-0.2,0.3-0.2
			c0.2-0.2,0.3-0.2,0.3-0.2c0.2-0.2,0.3-0.2,0.5-0.2c0.2-0.2,0.2-0.2,0.3-0.2c0.2-0.2,0.3-0.2,0.6-0.3l0.2-0.2
			c0.2-0.2,0.5-0.2,0.6-0.3c0,0,0,0,0.2-0.2c0.2-0.2,0.5-0.2,0.6-0.5l0,0c1.4-0.8,2.8-1.7,4-2.5l0,0c0.2-0.2,0.3-0.3,0.6-0.5
			c0,0,0,0,0.2-0.2c0.2-0.2,0.3-0.3,0.6-0.6l0.2-0.2c0.2-0.2,0.3-0.3,0.5-0.5c0.2-0.2,0.2-0.2,0.2-0.2s0.2-0.2,0.3-0.3
			s0.2-0.2,0.3-0.3c0.2-0.2,0.2-0.2,0.3-0.3s0.5-0.5,0.6-0.6c0.2-0.2,0.5-0.5,0.6-0.6c0.2-0.2,0.2-0.2,0.3-0.3s0.2-0.2,0.3-0.3
			s0.2-0.2,0.3-0.3c0.2-0.2,0.2-0.2,0.2-0.2c0.2-0.2,0.3-0.3,0.5-0.5l0.2-0.2c0.2-0.2,0.3-0.3,0.6-0.6c0,0,0,0,0.2-0.2
			c0.2-0.2,0.3-0.3,0.5-0.6l0,0c0.9-1.2,1.7-2.6,2.5-4l0,0c0.2-0.2,0.2-0.5,0.5-0.6c0,0,0,0,0.2-0.2c0.2-0.2,0.2-0.5,0.3-0.6
			l0.2-0.2c0.2-0.2,0.2-0.3,0.3-0.6c0.2-0.2,0.2-0.2,0.2-0.3c0.2-0.2,0.2-0.3,0.2-0.5c0.2-0.2,0.2-0.3,0.2-0.3
			c0.2-0.2,0.2-0.3,0.2-0.3c0.2-0.2,0.2-0.3,0.2-0.5c0.2-0.2,0.2-0.2,0.2-0.3s0.2-0.3,0.2-0.6l0.2-0.2c0-0.2,0.2-0.5,0.2-0.6
			c0,0,0,0,0.2-0.2c0-0.2,0.2-0.5,0.2-0.6l0,0c0.5-1.5,0.8-3.1,0.9-4.6l0,0c0-0.2,0.2-0.6,0.2-0.8l0,0c0-0.2,0-0.5,0.2-0.8
			c0,0,0,0,0-0.2c0-0.2,0-0.5,0-0.6v-0.2c0-0.2,0-0.5,0.2-0.6c0-0.2,0-0.2,0-0.5c0-0.2,0-0.2,0-0.5c0-0.2,0-0.5,0-0.9l0,0
			c0-0.2,0-0.5-0.2-0.8c0-0.2,0-0.2,0-0.5c0-0.2,0-0.2,0-0.5c0-0.2,0-0.5-0.2-0.6v-0.2c0-0.2,0-0.5,0-0.6c0,0,0,0,0-0.2
			s0-0.5-0.2-0.8l0,0c0-0.2-0.2-0.6-0.2-0.8l0,0c-0.2-1.5-0.6-3.1-0.9-4.6l0,0c0-0.2-0.2-0.6-0.2-0.6s0,0-0.2-0.2
			c0-0.2-0.2-0.5-0.2-0.6l-0.2-0.2c0-0.2-0.2-0.3-0.2-0.6c-0.2-0.2-0.2-0.2-0.2-0.3c-0.2-0.2-0.2-0.3-0.2-0.5
			c-0.2-0.2-0.2-0.3-0.2-0.3c-0.2-0.2-0.2-0.3-0.2-0.3c-0.2-0.2-0.2-0.3-0.2-0.5c0-0.2-0.2-0.2-0.2-0.3c-0.2-0.2-0.2-0.3-0.3-0.6
			L70,22.7c-0.2-0.2-0.2-0.5-0.3-0.6c0,0,0,0-0.2-0.2c-0.2-0.2-0.2-0.5-0.5-0.6l0,0c-0.8-1.4-1.7-2.8-2.5-4l0,0
			c-0.2-0.2-0.3-0.3-0.5-0.6c0,0,0,0-0.2-0.2c-0.2-0.2-0.3-0.3-0.6-0.6l-0.2-0.2c-0.2-0.2-0.3-0.3-0.5-0.5c-0.2-0.2-0.2-0.2-0.2-0.2
			c-0.2-0.2-0.2-0.2-0.3-0.3s-0.2-0.2-0.3-0.3s-0.2-0.2-0.3-0.3C62.4,14.9,62.3,14.7,62,14.4L62,14.4z"/>
	</g>
	<g>
		<rect x="99.1" y="27.4" class="st0" width="23" height="7.4"/>
		<rect x="99.1" y="40.8" class="st0" width="23" height="7.4"/>
	</g>
	<g>
		<path class="st0" d="M182.2,45.5c-0.6,0-1.1,0.3-1.4,0.6c-0.8,0.8-0.8,1.8,0,2.6c0.8,0.8,1.8,0.8,2.6,0c0.3-0.5,0.8-0.6,0.8-1.2
			c0-0.6-0.3-1.1-0.6-1.4C183.1,45.7,182.8,45.5,182.2,45.5z"/>
		<path class="st0" d="M182,10.4c-15.1,0-27.3,12.2-27.3,27.3C154.7,52.8,167,65,182,65c15.1,0,27.3-12.2,27.3-27.3
			C209.3,22.6,197.1,10.4,182,10.4z M185.3,50.6c-0.8,0.9-2,1.4-3.2,1.4c-1.2,0-2.3-0.5-3.2-1.4c-0.9-0.8-1.4-2-1.4-3.2
			c0-1.2,0.5-2.3,1.4-3.2c1.7-1.8,4.8-1.8,6.5,0c0.9,0.8,1.4,2,1.4,3.2C186.6,48.6,186.2,49.7,185.3,50.6z M193,42.9
			c-0.5,0.5-1.5,0.5-2,0c-2.5-2.3-5.7-3.7-9.1-3.7c-3.4,0-6.6,1.2-9.1,3.7c-0.2,0.3-0.6,0.5-0.9,0.5c-0.3,0-0.6-0.2-0.9-0.5
			c-0.5-0.5-0.5-1.5,0-2c6.2-6.2,16.2-6.2,22,0C193.4,41.5,193.4,42.5,193,42.9z M197.6,38.3c-0.2,0.3-0.6,0.5-0.9,0.5
			c-0.3,0-0.6-0.2-0.9-0.5c-7.6-7.6-19.9-7.6-27.4,0c-0.2,0.3-0.6,0.5-0.9,0.5s-0.6-0.2-0.9-0.5c-0.5-0.5-0.5-1.5,0-2
			c4.2-4.2,9.7-6.5,15.7-6.5c5.9,0,11.4,2.3,15.4,6.5C198,36.9,198,37.8,197.6,38.3z M202.1,33.7c-0.2,0.3-0.6,0.5-0.9,0.5
			s-0.6-0.2-0.9-0.5c-10-10-26.5-10-36.5,0c-0.2,0.3-0.6,0.5-0.9,0.5c-0.3,0-0.6-0.2-0.9-0.5c-0.5-0.5-0.5-1.5,0-2
			c5.4-5.5,12.6-8.5,20.3-8.5c7.7,0,14.8,3.1,20.2,8.5C202.8,32.3,202.8,33.2,202.1,33.7z"/>
	</g>
</g>
</svg>
