<?xml version="1.0" encoding="utf-8"?>
<!-- Generator: Adobe Illustrator 19.0.0, SVG Export Plug-In . SVG Version: 6.00 Build 0)  -->
<svg version="1.1" id="Layer_1" xmlns="http://www.w3.org/2000/svg" xmlns:xlink="http://www.w3.org/1999/xlink" x="0px" y="0px"
	 viewBox="0 0 652.5 119.8" style="enable-background:new 0 0 652.5 119.8;" xml:space="preserve">
<style type="text/css">
	.st0{fill:#373732;}
	.st1{fill-rule:evenodd;clip-rule:evenodd;fill:#373732;}
</style>
<path class="st0" d="M101,38.5V6.7c0-0.3,0.1-0.6,0.4-0.9c0.3-0.3,0.5-0.4,0.8-0.4h59.7c0.4,0,0.7,0.1,1,0.4
	c0.3,0.3,0.4,0.5,0.4,0.9v22.7c0,0.3-0.1,0.6-0.4,0.9c-0.3,0.3-0.6,0.4-1,0.4h-34.8v7.8h5.8v8.6l29.1-0.2c0.4,0,0.7,0.1,1,0.4
	c0.3,0.3,0.4,0.5,0.4,0.9v14.4h-6.1v2.9h6.1v5.4c0,0.3-0.2,0.6-0.5,0.9c-0.2,0.2-0.5,0.3-0.8,0.3l-29.2,0.2v16.4h34.8
	c0.9,0,1.4,0.4,1.4,1.2v22.6c0,0.8-0.5,1.2-1.4,1.2h-51v2.8h-9.9v-2.8H91.6v-2.9h15.2v0V44v-2.9v-2.6H101L101,38.5z M106.8,44h8.2
	v-2.9h-8.2H95.4V44H106.8L106.8,44z"/>
<path class="st0" d="M294.7,47.1l23.5-0.1v0h1.4l4.2,0c0.1,0,0.2,0,0.3,0h5.6v2.9h-4.5v14.6h5.8v6.4c0,0.3-0.2,0.6-0.5,0.9
	c-0.2,0.2-0.5,0.3-0.8,0.3l-29.2,0.2V79h19.3V82h-19.3v6.7h34.8c0.9,0,1.4,0.4,1.4,1.2v22.6c0,0.8-0.5,1.2-1.4,1.2h-59.7
	c-0.3,0-0.6-0.1-0.9-0.3c-0.3-0.2-0.4-0.5-0.4-0.9V82h17.3V79h-17.3V64.5h-5.8V6.7c0-0.3,0.1-0.6,0.4-0.9c0.3-0.3,0.5-0.4,0.9-0.4
	h59.7c0.4,0,0.7,0.1,1,0.4c0.3,0.3,0.4,0.5,0.4,0.9v22.7c0,0.3-0.1,0.6-0.4,0.9c-0.3,0.3-0.6,0.4-1,0.4h-34.8V47.1L294.7,47.1z"/>
<path class="st0" d="M432.1,5c0.6,0,0.9,0.4,0.9,1.2v12.6v2.9v20.4h8.8v0h16v2.9h-16v67.4c0,0.8-0.4,1.2-1.2,1.2
	c-0.3,0-0.6-0.1-0.8-0.3L377,59.6l0.6,53.5c0,0.3-0.1,0.6-0.4,0.9c-0.3,0.3-0.5,0.4-0.9,0.4h-23c-0.3,0-0.6-0.1-0.9-0.4
	c-0.3-0.3-0.4-0.5-0.4-0.9l-0.4-70.9H343l-0.2-35.6c0-0.7,0.2-1.2,0.7-1.3c0.5-0.2,0.9,0,1.3,0.4l42.5,36.5h8.8l20.1,17.3V42.2h-8.8
	v-8.6h-7.3v-2.9h7.3V6.3c0-0.3,0.1-0.6,0.4-0.9c0.3-0.3,0.5-0.4,0.9-0.4h23.2H432.1L432.1,5z M433,18.9h-8.6v2.9h8.6h10.5v-2.9H433
	L433,18.9z"/>
<path class="st0" d="M489.1,31.6h-42.7c-0.4,0-0.7-0.1-1-0.4c-0.3-0.3-0.4-0.5-0.4-0.9l-0.2-22.9c0-0.3,0.1-0.6,0.4-0.9
	c0.3-0.3,0.6-0.5,1-0.5h84.6c0.5,0,0.9,0.3,1.1,0.8c0.2,0.5,0.2,1,0,1.4l-42,71.8h8.8l-2.3,3.9h23.8v2.9h-25.5l-1.4,2.4h43.6
	c0.4,0,0.7,0.1,0.9,0.4c0.2,0.3,0.3,0.5,0.3,0.9v22.4c0,0.3-0.1,0.6-0.3,0.9c-0.2,0.3-0.5,0.5-0.9,0.5h-85.3c-0.4,0-0.7-0.2-1-0.7
	c-0.3-0.5-0.3-1-0.1-1.5l14.9-25.3h-16.6V84h18.3l2.3-3.9h-8.8L489.1,31.6L489.1,31.6z M476.8,86.9h17.8V84h-17.8V86.9L476.8,86.9z"
	/>
<path class="st0" d="M95.2,82.5c0,5.6-1.4,10.9-4.3,16c-2.9,5.1-7.2,9.3-13,12.6c-5.8,3.3-12.8,4.9-21.2,4.9
	c-10.4,0-20.1-2.3-29.1-6.8c-0.6-0.3-1-0.7-1.2-1.2c-0.2-0.5-0.2-0.9-0.1-1.1l0.9-2.1h-3.7v-2.9h5l5.6-12.5c0.1-0.1,0.3-0.4,0.5-0.9
	c0.2-0.5,0.7-0.9,1.4-1.2c0.5,0,1.8,0.4,3.7,1.1c3.3,1,6.2,1.9,8.8,2.5c2.6,0.6,5.4,0.9,8.5,0.9c3.4,0,6.5-0.5,9.4-1.5
	c2.8-1,4.3-2.9,4.3-5.7c0-0.6-0.1-1.1-0.2-1.4c-0.3-2-1.7-3.8-4.1-5.6c-2.4-1.8-6.3-4.1-11.5-7c-6-3.2-10.9-6.1-14.8-8.8
	c-3.3-2.3-6.3-5-8.9-8.2h-5.8c-0.4-0.5-0.9-1.1-1.3-1.6c-1.8-2.4-3.1-5.1-3.9-7.9H3.8v-2.9h16c-0.1-0.8-0.2-1.7-0.2-2.5
	c-0.4-11.4,3-20,10.1-25.7c7.2-5.7,16.3-8.6,27.4-8.6c8.2,0,16.5,1.5,24.9,4.6c0.5,0.1,0.9,0.4,1.2,0.8c0.3,0.4,0.3,0.8,0.2,1.2
	l-6.2,19c-0.4,1.1-0.7,1.8-0.9,2c-0.2,0.2-0.7,0.3-1.4,0.2c-3-1.3-6.3-2.4-10-3.3c-3.7-0.9-7.1-1.3-10.3-1.3c-3.2,0-5.8,0.6-7.7,1.7
	c-2,1.1-2.9,2.9-2.9,5.4c0,0.9,0.1,1.6,0.2,2.2c0.3,1.6,1.2,3,2.7,4.4H31.9V44h17.8v-0.7v-2.2h25.5V44H50.9c2.3,1.4,5.2,3.1,8.8,5.1
	c3,1.5,5.8,3,8.3,4.5h5.8c2.5,1.4,4.8,2.8,6.8,4.2c4,2.7,7.4,6.1,10.3,10.2C93.8,72.1,95.2,76.9,95.2,82.5L95.2,82.5z M32.2,101.9
	h-3.5v2.9h3.5V101.9L32.2,101.9z"/>
<path class="st1" d="M549.1,76.5h11.6c-0.1,0.6-1.6,3.5-3.6,7.5h8.2v2.9H557v-2.8V84h-11.4v2.9h10c-5.3,10.4-12.8,24.8-12.8,25.9
	c0,0.4,0.5,0.9,0.9,0.9h24.8c1.4,0,1.8-1.8,2.9-4l4.6-9.5c0.8-1.6,1.5-3.2,2.3-4.8h39l3.3,7c0.4,0.8,0.7,1.5,1.1,2.3l2.2,4.6
	c0.4,0.8,0.7,1.6,1.1,2.4c0.3,0.6,0.9,2,1.6,2h0.2h23.1c1.3,0,2.2-0.1,2.5-0.2c0.5-1.9-0.7-2.8-1.9-5.3c-0.8-1.6-1.5-3-2.3-4.6
	c-1.6-3.1-3-6-4.6-9.2c-1.5-3.1-3-6-4.5-9c-1-2.1-2-4.1-3-6.2h9v-2.9h-10.5l0-0.1h-11.7c-0.2-0.9-3.6-7.2-4.5-8.9l-27.1-54.2
	c-0.8-1.6-1.5-2.8-2.3-4.4c-0.6-1.1-1.8-4.2-2.7-4.2c-1.7,0-2,1.7-3.2,4l-11.3,22.6c-1.5,3.1-3,5.9-4.6,9L549.1,76.5L549.1,76.5z
	 M582.9,58.6h3.7v2.9h-5.2l-3.6,7.2h16.2v0h8.9v-2.9h-10.4l-6.6-13.5L582.9,58.6L582.9,58.6z"/>
<path class="st1" d="M172.2,6.8v55.8h-8.8v2.9h8.8v36h8.7v11.1c0,0.5,0.5,1.3,1,1.3h47.1c3.3,0,8-1.3,10.8-2.6c1.1-0.5,2-0.9,3-1.5
	c1.4-0.8,2.7-1.7,4-2.7l2.4-2c0.4-0.4,0.7-0.7,1.1-1.1c0.7-0.7,1.6-1.7,2-2.6h-8.7c1.1-1.6,1.4-1.8,2.6-3.9c2.1-3.8,3.7-7.7,4-12.2
	l0.3-3.1h23.4v-2.9h-23.4c0-5.2-3.5-12.9-7.2-16.6c-0.4-0.4-0.4-0.6-0.9-1c-0.6-0.4-1.4-1.5-2.1-1.6c0.2-0.7,1.7-2,2.4-2.7
	c0.7-0.7,1.7-2,2.3-2.9c0.5-0.7,0.8-1.5,1.3-2.2c0.7-1.2,1.6-3.6,2-4.9c0.7-2.4,1-4,1-6.7h10.7v-3h-10.5c0-5-1-9.3-2.5-13
	c-0.7-1.9-1.5-3.3-2.5-5c-0.5-0.8-0.9-1.5-1.5-2.3c-3-3.9-5.5-6.1-10.1-8.4c-3.3-1.6-7.8-3.2-11.7-3.2h-47.9
	C172.5,5.5,172.2,6.1,172.2,6.8L172.2,6.8z M217.5,82h8.2c-0.2,2.2-1.1,4-2.7,5.6c-1.6,1.9-3.9,2.8-6.6,2.8h-17.5V71.5h17.5
	c2.5-0.2,4.7,0.7,6.6,2.6c1.4,1.4,2.3,3.1,2.6,4.9h-8.1V82L217.5,82z M216.3,48c2.4,0,4.5-0.9,6.3-2.8c1.2-1.5,1.9-3.1,2.1-4.9h9.7
	v-2.9h-9.6c0-1.9-0.7-3.7-2.2-5.5c-1.8-2-3.9-2.9-6.3-2.9h-17.5h-11.2v2.9h11.2V48H216.3L216.3,48z"/>
</svg>
